<?xml version="1.0" encoding="UTF-8" standalone="no"?>
<!-- Created with Inkscape (http://www.inkscape.org/) -->

<svg
   width="210mm"
   height="297mm"
   viewBox="0 0 210 297"
   version="1.1"
   id="svg919"
   inkscape:version="1.2 (dc2aedaf03, 2022-05-15)"
   sodipodi:docname="3dkubisch_rooster.svg"
   xmlns:inkscape="http://www.inkscape.org/namespaces/inkscape"
   xmlns:sodipodi="http://sodipodi.sourceforge.net/DTD/sodipodi-0.dtd"
   xmlns="http://www.w3.org/2000/svg"
   xmlns:svg="http://www.w3.org/2000/svg">
  <sodipodi:namedview
     id="namedview921"
     pagecolor="#ffffff"
     bordercolor="#666666"
     borderopacity="1.0"
     inkscape:showpageshadow="2"
     inkscape:pageopacity="0.0"
     inkscape:pagecheckerboard="0"
     inkscape:deskcolor="#d1d1d1"
     inkscape:document-units="mm"
     showgrid="false"
     inkscape:zoom="1.1061539"
     inkscape:cx="358.90123"
     inkscape:cy="462.86507"
     inkscape:window-width="900"
     inkscape:window-height="1010"
     inkscape:window-x="1004"
     inkscape:window-y="12"
     inkscape:window-maximized="1"
     inkscape:current-layer="layer1" />
  <defs
     id="defs916" />
  <g
     inkscape:label="Layer 1"
     inkscape:groupmode="layer"
     id="layer1">
    <path
       style="fill:#000000;stroke:#000000;stroke-width:0.219022px;stroke-linecap:butt;stroke-linejoin:miter;stroke-opacity:1"
       d="m 76.385807,147.48194 h 50.051773 l -5.00518,-3.42272 2.50259,-1.71136 10.01036,6.84544 -10.01036,6.84544 -2.50259,-1.71136 5.00518,-3.42272 H 76.385807 c -0.02934,-3.7028 0.03223,0.20808 0,-3.42272 z"
       id="path903"
       sodipodi:nodetypes="cccccccccc" />
    <path
       style="fill:#000000;stroke:#000000;stroke-width:0.218793px;stroke-linecap:butt;stroke-linejoin:miter;stroke-opacity:1"
       d="M 79.479044,150.9713 H 29.428555 l 5.00505,3.41567 -2.502524,1.70783 -10.010101,-6.83133 10.010101,-6.83133 2.502524,1.70783 -5.00505,3.41567 h 50.050489 c 0.02933,3.69517 -0.03223,-0.20765 0,3.41566 z"
       id="path903-7"
       sodipodi:nodetypes="cccccccccc" />
    <path
       style="fill:#000000;stroke:#000000;stroke-width:0.202087px;stroke-linecap:butt;stroke-linejoin:miter;stroke-opacity:1"
       d="m 75.880016,148.01004 43.369964,-14.56143 -6.84095,-1.06598 0.9165,-1.98912 13.68193,2.13194 -3.66606,7.95651 -3.42048,-0.53299 1.83304,-3.97825 -43.369977,14.56143 c -2.734281,-2.71997 0.180156,0.14394 -2.503967,-2.52211 z"
       id="path903-3"
       sodipodi:nodetypes="cccccccccc" />
    <path
       style="fill:#000000;stroke:#000000;stroke-width:0.201917px;stroke-linecap:butt;stroke-linejoin:miter;stroke-opacity:1"
       d="m 81.389445,149.35274 -43.37028,14.5369 6.841019,1.06417 -0.916529,1.98579 -13.682021,-2.12836 3.666085,-7.9431 3.420516,0.53208 -1.833051,3.97156 43.370273,-14.5369 c 2.734305,2.71538 -0.180153,-0.14371 2.503988,2.51786 z"
       id="path903-6"
       sodipodi:nodetypes="cccccccccc" />
    <path
       style="fill:#000000;stroke:#000000;stroke-width:0.264583px;stroke-linecap:butt;stroke-linejoin:miter;stroke-opacity:1"
       d="m 74.319647,150.13546 v -50 l -4.999998,5 -2.5,-2.5 9.999998,-9.999996 10,9.999996 -2.5,2.5 -5,-5 v 50 c -5.40915,0.0293 0.30397,-0.0322 -5,0 z"
       id="path903-6-3"
       sodipodi:nodetypes="cccccccccc" />
    <path
       style="fill:#000000;stroke:#000000;stroke-width:0.264583px;stroke-linecap:butt;stroke-linejoin:miter;stroke-opacity:1"
       d="m 79.155475,146.88915 v 50 l 5,-5 2.5,2.5 -10,10 -10.000004,-10 2.5,-2.5 5.000004,5 v -50 c 5.40915,-0.0293 -0.30397,0.0322 5,0 z"
       id="path903-6-2"
       sodipodi:nodetypes="cccccccccc" />
    <text
       xml:space="preserve"
       style="font-style:normal;font-weight:normal;font-size:10.5833px;line-height:1.25;font-family:sans-serif;fill:#ff0000;fill-opacity:1;stroke:none;stroke-width:0.264583"
       x="137.59744"
       y="154.01167"
       id="text1445"><tspan
         sodipodi:role="line"
         id="tspan1443"
         style="stroke-width:0.264583;fill:#ff0000"
         x="137.59744"
         y="154.01167">0</tspan></text>
    <text
       xml:space="preserve"
       style="font-style:normal;font-weight:normal;font-size:10.5833px;line-height:1.25;font-family:sans-serif;fill:#ff0000;fill-opacity:1;stroke:none;stroke-width:0.264583"
       x="129.59599"
       y="133.06647"
       id="text1449"><tspan
         sodipodi:role="line"
         id="tspan1447"
         style="stroke-width:0.264583;fill:#ff0000"
         x="129.59599"
         y="133.06647">1</tspan></text>
    <text
       xml:space="preserve"
       style="font-style:normal;font-weight:normal;font-size:10.5833px;line-height:1.25;font-family:sans-serif;fill:#ff0000;fill-opacity:1;stroke:none;stroke-width:0.264583"
       x="17.287415"
       y="146.72694"
       id="text1453"><tspan
         sodipodi:role="line"
         id="tspan1451"
         style="fill:#ff0000;stroke-width:0.264583"
         x="17.287415"
         y="146.72694">2</tspan></text>
    <text
       xml:space="preserve"
       style="font-style:normal;font-weight:normal;font-size:10.5833px;line-height:1.25;font-family:sans-serif;fill:#ff0000;fill-opacity:1;stroke:none;stroke-width:0.264583"
       x="23.83419"
       y="171.7038"
       id="text1457"><tspan
         sodipodi:role="line"
         id="tspan1455"
         style="stroke-width:0.264583;fill:#ff0000"
         x="23.83419"
         y="171.7038">3</tspan></text>
    <text
       xml:space="preserve"
       style="font-style:normal;font-weight:normal;font-size:10.5833px;line-height:1.25;font-family:sans-serif;fill:#ff0000;fill-opacity:1;stroke:none;stroke-width:0.264583"
       x="85.104698"
       y="204.67618"
       id="text1461"><tspan
         sodipodi:role="line"
         id="tspan1459"
         style="stroke-width:0.264583;fill:#ff0000"
         x="85.104698"
         y="204.67618">4</tspan></text>
    <text
       xml:space="preserve"
       style="font-style:normal;font-weight:normal;font-size:10.5833px;line-height:1.25;font-family:sans-serif;fill:#ff0000;fill-opacity:1;stroke:none;stroke-width:0.264583"
       x="80.850273"
       y="88.934059"
       id="text1465"><tspan
         sodipodi:role="line"
         style="stroke-width:0.264583;fill:#ff0000"
         x="80.850273"
         y="88.934059"
         id="tspan1467">5</tspan></text>
  </g>
</svg>
